<svg width="314" height="329" viewBox="0 0 314 329" fill="none" xmlns="http://www.w3.org/2000/svg">
<path d="M0.500801 328L1.0008 1.50006L75.0008 7.50006L106.001 26.0001L130.501 61.0001L157.001 142L194.501 36.0001L235.001 10.0001L313.501 1.50006V328.5H204.001L220.501 250L258.501 214L285.501 139.5L298.001 51.0001L252.001 162L189.001 204.5L168.501 227.5L166.501 257.5H157.001L145.501 227.5L130.501 208L79.5008 176.5L53.0008 149L17.0008 51.0001L24.5008 126.5L47.5008 197L96.0008 257.5L109.501 323L0.500801 328Z" fill="#190F0A" stroke="#190F0A"/>
<path d="M147.501 256.646H166.001" stroke="#190F0A" stroke-width="7"/>
<path d="M4.5008 1.11511V324.646H108.001C109.167 302.646 103.701 252.346 72.5008 227.146C41.3008 201.946 19.0008 128.646 16.5008 47.6458C46.0008 145.146 59.0008 159.146 72.5008 170.646C90.0466 185.592 153.501 200.646 151.001 256.146" stroke="#190F0A" stroke-width="7"/>
<path d="M309.501 1.50006V325.5H205.698C204.528 303.338 210.011 252.667 241.302 227.281C272.593 201.896 294.958 128.055 297.466 46.4583C267.88 144.677 254.842 158.78 241.302 170.365C223.705 185.422 160.066 200.586 162.573 256.495" stroke="#190F0A" stroke-width="7"/>
<path d="M310.001 4.64603C166.801 -6.95397 184.501 78.6458 157.001 151.646C128.501 60.6458 132.101 -6.15382 4.5008 4.64603" stroke="#190F0A" stroke-width="7"/>
</svg>
